<svg xmlns="http://www.w3.org/2000/svg" width="70.527" height="57.153" viewBox="0 0 70.527 57.153">
    <g id="Group_379" data-name="Group 379" transform="translate(-526.982 -550.932)">
        <path id="Path_9" data-name="Path 9"
            d="M8745.216,1299.993s12.319-9.654,20.437-9.032,10.119,2.97,13.314,5.4,10.623,9.352,24.639,3.635c.072.1,7.1-3.627,9.444-6.134"
            transform="translate(-8217 -738)" fill="none" stroke="#d72829" stroke-width="4"></path>
        <path id="Path_10" data-name="Path 10"
            d="M8745.216,1299.993s12.319-9.654,20.437-9.032,10.119,2.97,13.314,5.4,10.623,9.352,24.639,3.635c.072.1,7.1-3.627,9.444-6.134"
            transform="translate(-8217 -717)" fill="none" stroke="#d72829" stroke-width="4"></path>
        <path id="Path_11" data-name="Path 11"
            d="M8745.216,1299.993s12.319-9.654,20.437-9.032,10.119,2.97,13.314,5.4,10.623,9.352,24.639,3.635c.072.1,7.1-3.627,9.444-6.134"
            transform="translate(-8217 -696)" fill="none" stroke="#d72829" stroke-width="4"></path>
    </g>
</svg>